<?xml version="1.0" encoding="utf-8"?>
<!-- Generator: Adobe Illustrator 24.1.3, SVG Export Plug-In . SVG Version: 6.00 Build 0)  -->
<svg version="1.1" id="Layer_1" xmlns="http://www.w3.org/2000/svg" xmlns:xlink="http://www.w3.org/1999/xlink" x="0px" y="0px"
	 viewBox="0 0 639.4 585.8" style="enable-background:new 0 0 639.4 585.8;" xml:space="preserve">
<style type="text/css">
	.st0{fill:#FFFFFF;}
</style>
<path class="st0" d="M637.2,267.5c-6.4-20.5-25.7-34.1-47.2-33.3l-4.6,0.2c-13.4,0.5-26,6.1-35.5,15.5l-70.6,69.9
	c-1.7-2.6-3.6-5-5.8-7.3c-9.3-9.7-22.3-15.2-35.7-15.2h-99.6c-18.8,0-37.1-2.4-54.5-7.2c-45.2-12.5-88.4-3.5-124.8,26.1
	c-15.4,12.5-26.4,26.1-33.2,35.8c-7.7-5.3-16.8-8.1-26.3-8c-12,0.2-23.2,5.1-31.5,13.7L3.5,424.7c-4.8,4.9-4.7,12.8,0.2,17.6
	l51.8,51.1c4.9,4.9,12.9,4.8,17.7-0.1c4.9-4.9,4.8-12.9-0.1-17.7l-43-42.4l55.8-58c3.7-3.8,8.6-6,13.9-6.1
	c5.3-0.1,10.3,1.9,14.1,5.6l99.6,96.6c3.8,3.7,5.9,8.6,6,13.9c0.1,5.3-1.9,10.3-5.6,14.1l-54.9,56.3L145,542.3
	c-5-4.8-12.9-4.6-17.7,0.4c-4.8,5-4.6,12.9,0.4,17.7l23.1,22c2.4,2.3,5.5,3.5,8.6,3.5c3.3,0,6.5-1.3,9-3.8l63.5-65.1
	c8.4-8.6,12.9-19.9,12.7-31.9c-0.1-5.5-1.1-10.8-3.1-15.8l22.4-2.6c10.4-1.2,20.9-1.8,31.4-1.8h151.6c2.3,0,4.7-0.1,7-0.3l14.5-1.2
	c14.7-1.2,28.9-6.3,41.1-14.8c6-4.1,11.4-9,16.1-14.6l102.2-120.2C638.6,300.9,642.1,283.6,637.2,267.5z M608.6,297.5L506.4,417.7
	c-3.3,3.9-7.1,7.3-11.3,10.2c-8.5,5.9-18.5,9.5-28.8,10.4l-14.5,1.2c-1.6,0.1-3.3,0.2-4.9,0.2H295.3c-11.4,0-22.9,0.7-34.3,2
	l-36.2,4.2l-80.1-77.3c5.5-8.1,15.5-21.1,30-32.9c30.3-24.6,64.7-31.8,102.3-21.4c19.5,5.4,40.1,8.1,61.2,8.1h99.6
	c6.6,0,13.1,2.7,17.7,7.5c3.4,3.5,5.5,7.8,6.4,12.2c0,1.1,0.1,2.3,0.4,3.4c0.3,5.9-1.4,11.9-5.3,16.7l-0.4,0.5
	c-4.7,5.8-11.6,9.2-19.1,9.2h-86.8c-6.9,0-12.5,5.6-12.5,12.5c0,6.9,5.6,12.5,12.5,12.5h86.8c15.1,0,29.2-6.8,38.6-18.5l0.4-0.5
	c7.2-9,10.8-19.9,10.9-30.8l80.3-79.4c5-5,11.7-8,18.8-8.2l4.6-0.2c10.1-0.4,19.2,6,22.2,15.7C615.7,282.8,613.9,291.3,608.6,297.5z
	 M99.6,395.6c-18.7,0-33.9,15.2-33.9,33.9c0,18.7,15.2,33.9,33.9,33.9c18.7,0,33.9-15.2,33.9-33.9
	C133.5,410.8,118.3,395.6,99.6,395.6z M99.6,438.4c-4.9,0-8.9-4-8.9-8.9c0-4.9,4-8.9,8.9-8.9c4.9,0,8.9,4,8.9,8.9
	C108.4,434.4,104.5,438.4,99.6,438.4z M297.5,373.8l-0.6,0.2c-6.7,1.6-10.9,8.3-9.3,15.1c1.4,5.8,6.5,9.7,12.2,9.7
	c0.9,0,1.9-0.1,2.9-0.3l0.6-0.1c6.7-1.6,10.9-8.3,9.3-15.1C311,376.4,304.2,372.2,297.5,373.8z M98,506.4l-0.6,0.2
	c-6.7,1.6-10.9,8.3-9.3,15.1c1.4,5.8,6.5,9.7,12.2,9.7c1,0,1.9-0.1,2.9-0.3l0.6-0.1c6.7-1.6,10.9-8.3,9.3-15.1
	C111.4,509,104.7,504.8,98,506.4z M366.5,265.1c73.1,0,132.5-59.5,132.5-132.5S439.6,0,366.5,0c-30,0-58.3,9.8-81.8,28.2
	c-5.4,4.2-10.5,8.9-15.1,13.9c-7,7.5-13.1,15.7-18.1,24.6c-11.5,20-17.5,42.7-17.5,65.9C234,205.6,293.4,265.1,366.5,265.1z
	 M273.2,79.1c4.1-7.2,9.1-13.9,14.7-19.9c3.8-4.1,7.9-7.8,12.3-11.3c19.1-15,42-22.9,66.3-22.9C425.8,25,474,73.3,474,132.5
	c0,59.3-48.2,107.5-107.5,107.5C307.3,240,259,191.8,259,132.5C259,113.8,263.9,95.3,273.2,79.1z M377.6,175.4
	c-5,3-11.6,4.1-16.1,4.1c-8.4,0-15.8-10-15.8-21.3c0-6.9-5.6-12.5-12.5-12.5c-6.9,0-12.5,5.6-12.5,12.5c0,21.7,13.2,39.9,31,45
	c0.4,6.6,5.8,11.7,12.5,11.7c6.8,0,12.4-5.5,12.5-12.3c18.1-4.7,33.7-18.2,33.7-41.7c0-28.2-28.8-43.6-43.6-43.6
	c-0.2,0-18.6-1.6-18.6-13.4c0-18.1,18.4-18.6,18.6-18.6c3.5,0,7.7,2.1,11.1,5.4c1.6,1.6,1.8,1.8,1.8,8.5c0,6.9,5.6,12.5,12.5,12.5
	c6.9,0,12.5-5.6,12.5-12.5c0-8,0-17.1-9.1-26.2c-5.5-5.5-12-9.4-18.9-11.3c-0.4-6.6-5.8-11.8-12.5-11.8c-6.9,0-12.5,5.6-12.5,12.5
	v0.8c-13.7,5.1-28.5,17.2-28.5,40.6c0,28.7,29.8,38.4,43.5,38.4c3.8,0.3,18.7,6.9,18.7,18.6C385.3,167.8,383,172.2,377.6,175.4z"/>
</svg>
