<?xml version="1.0" encoding="utf-8"?>
<!-- Generator: Adobe Illustrator 24.1.3, SVG Export Plug-In . SVG Version: 6.00 Build 0)  -->
<svg version="1.1" id="Capa_1" xmlns="http://www.w3.org/2000/svg" xmlns:xlink="http://www.w3.org/1999/xlink" x="0px" y="0px"
	 viewBox="0 0 450.3 512" style="enable-background:new 0 0 450.3 512;" xml:space="preserve">
<style type="text/css">
	.st0{fill:#FFFFFF;}
</style>
<path class="st0" d="M246.5,32.3c-17.5-17.5-46.1-17.5-63.6,0c-15.8,15.8-17.1,39.8-5.5,57l-0.2,1.2c-12.2,61.2-42,116.8-86.1,160.9
	l-77.8,77.8c-17.6,17.6-17.6,46,0,63.6l42.4,42.4c17.6,17.6,46,17.6,63.6,0l10.6-10.6l74.2,74.2c17.6,17.6,46,17.6,63.6,0
	c17.5-17.5,17.5-46.1,0-63.6l-31.8-31.8l10.6-10.6c17.6-17.6,17.6-46,0-63.6l-7.2-7.2c35.4-24.8,75.7-42.1,118.7-50.7l1.2-0.2
	c17.6,11.9,41.5,9.9,57-5.5h0c17.5-17.5,17.5-46.1,0-63.6L246.5,32.3z M98,414c-5.9,5.9-15.3,5.9-21.2,0l-42.4-42.4
	c-5.9-5.9-5.9-15.3,0-21.2l74.2-74.2l63.6,63.6C165,347,105.5,406.5,98,414z M246.5,456.4c5.8,5.8,5.8,15.4,0,21.2
	c-5.8,5.8-15.4,5.8-21.2,0L151,403.4l21.2-21.2L246.5,456.4z M193.4,361c4.5-4.5,11.3-11.4,21.9-20.5l9.9,9.9
	c5.9,5.9,5.9,15.3,0,21.2l-10.6,10.6L193.4,361z M194.1,319.2l-64.9-64.9c34.8-40.2,59.7-87.6,73-139.1l131,131
	C281.6,259.5,234.2,284.4,194.1,319.2z M394.9,244.3c-5.9,5.9-15.3,5.9-21.2,0L204.1,74.7c-5.9-5.9-5.9-15.3,0-21.2
	c5.9-5.9,15.3-5.9,21.2,0l169.7,169.7C400.8,229,400.8,238.5,394.9,244.3z M98,329.2l-21.2,21.2c-5.9,5.9-5.9,15.4,0,21.2
	c5.9,5.9,15.4,5.9,21.2,0l21.2-21.2c5.9-5.9,5.9-15.4,0-21.2C113.4,323.3,103.9,323.3,98,329.2z M315.3,60c8.3,0,15-6.7,15-15V15
	c0-8.3-6.7-15-15-15s-15,6.7-15,15v30C300.3,53.3,307.1,60,315.3,60z M435.3,120h-30c-8.3,0-15,6.7-15,15c0,8.3,6.7,15,15,15h30
	c8.3,0,15-6.7,15-15C450.3,126.7,443.6,120,435.3,120z M385.9,85.6l30-30c5.9-5.9,5.9-15.4,0-21.2c-5.9-5.9-15.4-5.9-21.2,0l-30,30
	c-5.9,5.9-5.9,15.4,0,21.2C370.6,91.4,380.1,91.4,385.9,85.6z"/>
</svg>
