<svg xmlns="http://www.w3.org/2000/svg" viewBox="0 0 24 24">
  <title>Anonymous 2</title>
  <path d="M19.635,16.126l-2.572-.895a.5.5,0,0,0-.532.134A6.168,6.168,0,0,1,12,17.5a6.168,6.168,0,0,1-4.53-2.134.5.5,0,0,0-.532-.134l-2.572.895A6.5,6.5,0,0,0,0,22.266V23a.5.5,0,0,0,.5.5h23A.5.5,0,0,0,24,23v-.734A6.5,6.5,0,0,0,19.635,16.126Z" fill="#2196f3"/>
  <path d="M18,6.63c0-.043,0-.086,0-.13a6,6,0,0,0-12,0c0,.043,0,.087,0,.13A2.668,2.668,0,0,0,5,9c0,1.391.614,2.448,1.439,2.5.907,3.012,3.1,5,5.561,5s4.653-1.99,5.561-5C18.386,11.448,19,10.391,19,9A2.668,2.668,0,0,0,18,6.63Z" fill="#ffe082"/>
  <path d="M11.5,10.491a.49.49,0,0,1-.49-.415,2.158,2.158,0,0,1,1.233-2A1.522,1.522,0,0,0,13,6.5a.917.917,0,0,0-1-1,.917.917,0,0,0-1,1,.5.5,0,0,1-1,0,1.913,1.913,0,0,1,2-2,1.913,1.913,0,0,1,2,2,2.492,2.492,0,0,1-1.239,2.427c-.8.487-.767.992-.765,1.013a.507.507,0,0,1-.438.547A.52.52,0,0,1,11.5,10.491Z" fill="#f44336"/>
  <circle cx="11.5" cy="12" r="0.5" fill="#f44336"/>
</svg>
