<svg xmlns="http://www.w3.org/2000/svg" viewBox="0 0 24 24">
  <title>Anonymous 1</title>
  <path d="M12,.5a5.884,5.884,0,0,0-5.894,6v.021l.187,4.4a.527.527,0,0,0,.014.1C7.122,14.3,9.409,16.5,12,16.5s4.878-2.2,5.692-5.477a.527.527,0,0,0,.014-.1L17.894,6.5A5.884,5.884,0,0,0,12,.5Z" fill="#ffe082"/>
  <path d="M17.713,3.548A16.653,16.653,0,0,0,12,2.5,16.645,16.645,0,0,0,6.287,3.548.5.5,0,0,0,6,4.021l.29,6.9a.5.5,0,0,0,.027.144l.21.6A.5.5,0,0,0,7,12a10.965,10.965,0,0,0,1.186-.066l.6.9a1.515,1.515,0,0,0,1.254.67h.18a1.462,1.462,0,0,0,1.431-1.066L11.833,12h.338l.154.359A1.494,1.494,0,0,0,13.78,13.5h.18a1.517,1.517,0,0,0,1.255-.672l.6-.895A10.965,10.965,0,0,0,17,12a.5.5,0,0,0,.472-.335l.21-.6a.5.5,0,0,0,.027-.144l.29-6.9A.5.5,0,0,0,17.713,3.548Z" fill="#cfd8dc"/>
  <path d="M19.635,16.126l-2.572-.895a.5.5,0,0,0-.533.134A6.167,6.167,0,0,1,12,17.5a6.167,6.167,0,0,1-4.53-2.134.5.5,0,0,0-.533-.134l-2.572.895A6.5,6.5,0,0,0,0,22.266V23a.5.5,0,0,0,.5.5h23A.5.5,0,0,0,24,23v-.734A6.5,6.5,0,0,0,19.635,16.126Z" fill="#455a64"/>
  <path d="M10.5,9.5h-1a.5.5,0,0,1,0-1h1a.5.5,0,0,1,0,1Z" fill="#455a64"/>
  <path d="M14.5,9.5h-1a.5.5,0,0,1,0-1h1a.5.5,0,0,1,0,1Z" fill="#455a64"/>
  <path d="M11,8a.5.5,0,0,1-.326-.122c-.75-.646-2-1.349-2.32-1.025a.5.5,0,0,1-.707-.707c1.127-1.126,3.263.615,3.68.975A.5.5,0,0,1,11,8Z" fill="#455a64"/>
  <path d="M13,8a.5.5,0,0,1-.327-.878c.417-.36,2.555-2.1,3.68-.975a.5.5,0,1,1-.707.707c-.322-.323-1.569.378-2.32,1.025A.5.5,0,0,1,13,8Z" fill="#455a64"/>
  <path d="M12,17.5a.5.5,0,0,1-.493-.418l-.5-3a.5.5,0,1,1,.986-.164l.007.041.007-.041a.5.5,0,0,1,.986.164l-.5,3A.5.5,0,0,1,12,17.5Z" fill="#455a64"/>
</svg>
