<svg xmlns="http://www.w3.org/2000/svg" viewBox="0 0 24 24">
  <title>Bald Male</title>
  <path d="M19.635,16.126l-2.572-.895a.5.5,0,0,0-.532.134A6.168,6.168,0,0,1,12,17.5a6.168,6.168,0,0,1-4.53-2.134.5.5,0,0,0-.532-.134l-2.572.895A6.5,6.5,0,0,0,0,22.266V23a.5.5,0,0,0,.5.5h23A.5.5,0,0,0,24,23v-.734A6.5,6.5,0,0,0,19.635,16.126Z" fill="#f44336"/>
  <path d="M10.5,9.5h-1a.5.5,0,0,1,0-1h1a.5.5,0,0,1,0,1Z"/>
  <path d="M14.5,9.5h-1a.5.5,0,0,1,0-1h1a.5.5,0,0,1,0,1Z"/>
  <path d="M18,6.63c0-.043,0-.086,0-.13a6,6,0,0,0-12,0c0,.043,0,.087,0,.13A2.668,2.668,0,0,0,5,9c0,1.391.614,2.448,1.439,2.5.907,3.012,3.1,5,5.561,5s4.653-1.99,5.561-5C18.386,11.448,19,10.391,19,9A2.668,2.668,0,0,0,18,6.63Z" fill="#ffe082"/>
</svg>
