<svg xmlns="http://www.w3.org/2000/svg" viewBox="0 0 24 24">
  <title>Beard Man</title>
  <path d="M18,7.129c0-.043,0-.086,0-.129A6,6,0,0,0,6,7c0,.043,0,.086,0,.129A2.672,2.672,0,0,0,5,9.5c0,1.522.753,2.672,1.678,2.482A3.843,3.843,0,0,0,9.5,13a2.444,2.444,0,0,0,1.481-.575A1.681,1.681,0,0,1,12,12a1.681,1.681,0,0,1,1.019.425A2.444,2.444,0,0,0,14.5,13a3.843,3.843,0,0,0,2.822-1.018C18.245,12.164,19,11.022,19,9.5A2.672,2.672,0,0,0,18,7.129Z" fill="#ffe082"/>
  <path d="M17.456,10.965a.5.5,0,0,0-.6.082A2.921,2.921,0,0,1,14.5,12a1.55,1.55,0,0,1-.906-.394A2.628,2.628,0,0,0,12,11a2.628,2.628,0,0,0-1.594.606A1.55,1.55,0,0,1,9.5,12a2.921,2.921,0,0,1-2.356-.953.5.5,0,0,0-.839.475C7.124,14.8,9.413,17,12,17s4.876-2.2,5.7-5.479A.5.5,0,0,0,17.456,10.965Z" fill="#455a64"/>
  <path d="M12.5,14h-1a.5.5,0,0,1,0-1h1a.5.5,0,0,1,0,1Z" fill="#fafafa"/>
  <path d="M12,0A7.008,7.008,0,0,0,5,7a6.742,6.742,0,0,0,.182,1.5.5.5,0,0,0,.488.392,9.982,9.982,0,0,1,1.254.1.5.5,0,0,0,.574-.53A7.552,7.552,0,0,1,7.63,6a3.676,3.676,0,0,0,2.729-.811,2.048,2.048,0,0,0,.333-.433,9.127,9.127,0,0,0,5.344,2.228,7.345,7.345,0,0,0,.507,1.72A.5.5,0,0,0,17,9l.042,0,1.33-.11a.5.5,0,0,0,.446-.39A6.742,6.742,0,0,0,19,7,7.008,7.008,0,0,0,12,0Z" fill="#455a64"/>
  <path d="M19.635,16.626l-2.572-.895a.5.5,0,0,0-.533.135A6.169,6.169,0,0,1,12,18a6.169,6.169,0,0,1-4.53-2.134.5.5,0,0,0-.533-.135l-2.572.895A6.505,6.505,0,0,0,0,22.766V23.5a.5.5,0,0,0,.5.5h23a.5.5,0,0,0,.5-.5v-.734A6.505,6.505,0,0,0,19.635,16.626Z" fill="#ffc107"/>
  <path d="M10.5,10h-1a.5.5,0,0,1,0-1h1a.5.5,0,0,1,0,1Z" fill="#455a64"/>
  <path d="M14.5,10h-1a.5.5,0,0,1,0-1h1a.5.5,0,0,1,0,1Z" fill="#455a64"/>
</svg>
