<svg xmlns="http://www.w3.org/2000/svg" viewBox="0 0 24 24">
  <title>Business Man</title>
  <path d="M13.086,21.555A4.257,4.257,0,0,0,14,19.5c0-.925-.767-1.5-2-1.5s-2,.575-2,1.5a4.257,4.257,0,0,0,.914,2.055l-.861,1.722A.5.5,0,0,0,10.5,24h3a.5.5,0,0,0,.447-.724Z" fill="#f44336"/>
  <path d="M18.8,8.227a.5.5,0,0,0-.514-.335l-.962.08A4.759,4.759,0,0,1,17,6.5a.5.5,0,0,0-.5-.5C13.561,6,11.056,4,11,3.5a.5.5,0,0,0-1,0,1.312,1.312,0,0,1-.347.981A3,3,0,0,1,7.632,5a.887.887,0,0,0-.7.254A4.61,4.61,0,0,0,6.47,7.933c-.435-.042-1.114-.162-1.272.294A3.96,3.96,0,0,0,5,9.5c0,1.395.617,2.454,1.445,2.5C7.351,15.01,9.536,17,12,17s4.649-1.99,5.555-5c.828-.045,1.445-1.1,1.445-2.5A3.96,3.96,0,0,0,18.8,8.227Z" fill="#ffe082"/>
  <path d="M10.5,10h-1a.5.5,0,0,1,0-1h1a.5.5,0,0,1,0,1Z" fill="#455a64"/>
  <path d="M14.5,10h-1a.5.5,0,0,1,0-1h1a.5.5,0,0,1,0,1Z" fill="#455a64"/>
  <path d="M10.96,23.3l-3-7a.5.5,0,0,0-.288-.273.506.506,0,0,0-.4.022L2.1,18.643a2.489,2.489,0,0,0-1.3,1.626l-.78,3.11A.5.5,0,0,0,.5,24h10a.5.5,0,0,0,.46-.7Z" fill="#455a64"/>
  <path d="M23.985,23.378l-.78-3.109a2.489,2.489,0,0,0-1.3-1.626l-5.18-2.59a.506.506,0,0,0-.4-.022.5.5,0,0,0-.288.273l-3,7a.5.5,0,0,0,.46.7h10a.5.5,0,0,0,.485-.622Z" fill="#455a64"/>
  <path d="M12,0A7.008,7.008,0,0,0,5,7a6.819,6.819,0,0,0,.182,1.5.5.5,0,0,0,.488.392,10.039,10.039,0,0,1,1.255.1A.5.5,0,0,0,7.5,8.463,7.5,7.5,0,0,1,7.631,6a3.813,3.813,0,0,0,2.729-.811,2.105,2.105,0,0,0,.334-.434,9.126,9.126,0,0,0,5.344,2.229A7.36,7.36,0,0,0,16.543,8.7.5.5,0,0,0,17,9h.041l1.33-.11a.5.5,0,0,0,.447-.391A6.819,6.819,0,0,0,19,7,7.008,7.008,0,0,0,12,0Z" fill="#455a64"/>
</svg>
