<svg xmlns="http://www.w3.org/2000/svg" viewBox="0 0 24 24">
  <title>Chef</title>
  <path d="M24,23.5a.5.5,0,0,1-.5.5H.5a.5.5,0,0,1-.5-.5,6.169,6.169,0,0,1,4.37-5.87l2.56-.9a.5.5,0,0,1,.54.13A6.3,6.3,0,0,0,11,18.9a4.778,4.778,0,0,0,1,.1,6.158,6.158,0,0,0,4.53-2.14.517.517,0,0,1,.54-.13l2.56.9A6.169,6.169,0,0,1,24,23.5Z" fill="#cfd8dc"/>
  <path d="M17.342,16.966l-.9-1.7A.5.5,0,0,0,16,15H8a.5.5,0,0,0-.441.266l-.9,1.7a.5.5,0,0,0,.073.572A7.161,7.161,0,0,0,12,20a7.161,7.161,0,0,0,5.269-2.462A.5.5,0,0,0,17.342,16.966Z" fill="#455a64"/>
  <path d="M12,18v6H11V18a.5.5,0,0,1,1,0Z" fill="#455a64"/>
  <path d="M17.979,8.15C17.99,7.9,18,7.607,18,7.5a.5.5,0,0,0-.5-.5H6.5a.5.5,0,0,0-.5.5c0,.1.009.374.02.621A2.652,2.652,0,0,0,5,10.5c0,1.391.614,2.448,1.439,2.5.907,3.012,3.1,5,5.561,5s4.653-1.99,5.561-5c.825-.05,1.439-1.107,1.439-2.5A2.594,2.594,0,0,0,17.979,8.15Z" fill="#ffe082"/>
  <path d="M10.5,11h-1a.5.5,0,0,1,0-1h1a.5.5,0,0,1,0,1Z" fill="#546e7a"/>
  <path d="M14.5,11h-1a.5.5,0,0,1,0-1h1a.5.5,0,0,1,0,1Z" fill="#546e7a"/>
  <path d="M16,1a2.944,2.944,0,0,0-1.136.229,3.951,3.951,0,0,0-5.729,0A2.944,2.944,0,0,0,8,1,3,3,0,0,0,6,6.236V7.5a.5.5,0,0,0,.266.441A13.009,13.009,0,0,0,12,9a13.009,13.009,0,0,0,5.734-1.059A.5.5,0,0,0,18,7.5V6.236A3,3,0,0,0,16,1Z" fill="#cfd8dc"/>
  <path d="M9.8,14.872a1.59,1.59,0,0,1-1.153-.518.5.5,0,0,1,.707-.707c.365.365.645.284,1.414-.174A2.516,2.516,0,0,1,12,13a.5.5,0,0,1,0,1,2.06,2.06,0,0,0-.721.332A3.013,3.013,0,0,1,9.8,14.872Z" fill="#546e7a"/>
  <path d="M14.2,14.872a3.009,3.009,0,0,1-1.479-.54A2.06,2.06,0,0,0,12,14a.5.5,0,0,1,0-1,2.516,2.516,0,0,1,1.232.473c.771.458,1.05.537,1.414.174a.5.5,0,0,1,.707.707A1.588,1.588,0,0,1,14.2,14.872Z" fill="#546e7a"/>
</svg>
