<svg xmlns="http://www.w3.org/2000/svg" viewBox="0 0 24 24">
  <title>Criminal</title>
  <path d="M17.626,7.008a16.207,16.207,0,0,0-11.252,0C5.582,7.108,5,8.146,5,9.5c0,1.39.613,2.446,1.437,2.5.914,3.012,3.1,5,5.563,5s4.649-1.99,5.563-5C18.387,11.946,19,10.89,19,9.5,19,8.146,18.418,7.108,17.626,7.008Z" fill="#ffe082"/>
  <path d="M18.315,8.112A10.725,10.725,0,0,0,12,6,10.725,10.725,0,0,0,5.685,8.112.5.5,0,0,0,5.51,8.6,4.414,4.414,0,0,0,10,12c1.243,0,1.665-.448,1.872-1h.255c.2.545.624,1,1.879,1A4.411,4.411,0,0,0,18.49,8.6.5.5,0,0,0,18.315,8.112Z" fill="#607d8b"/>
  <path d="M19.635,16.626l-2.572-.895a.5.5,0,0,0-.532.134A6.168,6.168,0,0,1,12,18a6.168,6.168,0,0,1-4.53-2.134.5.5,0,0,0-.532-.134l-2.572.895A6.5,6.5,0,0,0,0,22.766V23.5a.5.5,0,0,0,.5.5h23a.5.5,0,0,0,.5-.5v-.734A6.5,6.5,0,0,0,19.635,16.626Z" fill="#cfd8dc"/>
  <path d="M10.5,9h-1a.5.5,0,0,1,0-1h1a.5.5,0,0,1,0,1Z" fill="#455a64"/>
  <path d="M14.5,9h-1a.5.5,0,0,1,0-1h1a.5.5,0,0,1,0,1Z" fill="#455a64"/>
  <path d="M17.977,5.084A5.966,5.966,0,0,0,12,0,5.966,5.966,0,0,0,6.023,5.084,1.427,1.427,0,0,0,5,6.5,1.483,1.483,0,0,0,6.485,8a.575.575,0,0,0,.157-.021A.488.488,0,0,0,6.8,7.915a15.241,15.241,0,0,1,10.391,0,.5.5,0,0,0,.173.07A.5.5,0,0,0,17.5,8h.015A1.483,1.483,0,0,0,19,6.5,1.427,1.427,0,0,0,17.977,5.084Z" fill="#37474f"/>
  <path d="M8,5.5a.5.5,0,0,1-.127-.983A18.12,18.12,0,0,1,12,4a.5.5,0,0,1,0,1,17.444,17.444,0,0,0-3.873.484A.52.52,0,0,1,8,5.5Z" fill="#c62828"/>
</svg>
