<svg xmlns="http://www.w3.org/2000/svg" viewBox="0 0 24 24">
  <title>Darth Vader</title>
  <path d="M23.975,23.342l-2-6a.5.5,0,0,0-.282-.3l-4.8-2a6.756,6.756,0,0,0,3.031-2.273.5.5,0,0,0,.052-.419c0-.014-.039-.107-.045-.121C18.952,9.9,16.416,4.5,14,4.5a2.989,2.989,0,0,0-1.281.306,1.67,1.67,0,0,1-1.437,0A2.989,2.989,0,0,0,10,4.5c-2.416,0-4.952,5.4-5.932,7.729-.006.012-.04.1-.044.117a.5.5,0,0,0,.052.419,6.756,6.756,0,0,0,3.031,2.273l-4.8,2a.5.5,0,0,0-.282.3l-2,6A.5.5,0,0,0,.5,24h23a.5.5,0,0,0,.475-.658Z" fill="#455a64"/>
  <path d="M19.944,12.262,18,6.419V4.5C18,1.4,14.491,0,12,0S6,1.4,6,4.5V6.419L4.056,12.262a.5.5,0,0,0,.936.353C6.435,9.188,8.617,5.5,10,5.5a2.017,2.017,0,0,1,.883.223,2.389,2.389,0,0,0,2.234,0A2.017,2.017,0,0,1,14,5.5c1.383,0,3.565,3.688,5.009,7.114a.5.5,0,0,0,.461.306.482.482,0,0,0,.176-.032A.5.5,0,0,0,19.944,12.262Z" fill="#37474f"/>
  <path d="M13.5,0h-3a.5.5,0,0,0-.5.5V2a2,2,0,0,0,4,0V.5A.5.5,0,0,0,13.5,0Z" fill="#607d8b"/>
  <path d="M15,14H9a.5.5,0,0,1-.4-.8l3-4a.519.519,0,0,1,.8,0l3,4a.5.5,0,0,1-.4.8Zm-5-1h4l-2-2.667Z" fill="#607d8b"/>
  <path d="M15,14a.476.476,0,0,1-.083-.007.5.5,0,0,1-.411-.575l.427-2.56L12,10.02l-2.934.839.427,2.56a.5.5,0,0,1-.986.164l-.5-3a.5.5,0,0,1,.355-.562l3.5-1a.507.507,0,0,1,.275,0l3.5,1a.5.5,0,0,1,.355.563l-.5,3A.5.5,0,0,1,15,14Z" fill="#607d8b"/>
  <rect x="6" y="19" width="11" height="5" rx="0.5" ry="0.5" fill="#607d8b"/>
  <path d="M10.5,22h-2a.5.5,0,0,1,0-1h2a.5.5,0,0,1,0,1Z" fill="#cfd8dc"/>
  <path d="M14.5,22h-2a.5.5,0,0,1,0-1h2a.5.5,0,0,1,0,1Z" fill="#cfd8dc"/>
  <path d="M11,8H9a.5.5,0,0,1-.412-.783A1.775,1.775,0,0,1,10,6.5a1.831,1.831,0,0,1,1.4.7A.5.5,0,0,1,11,8Zm-.4-.2h0Z" fill="#37474f"/>
  <path d="M15,8H13a.5.5,0,0,1-.4-.8A1.831,1.831,0,0,1,14,6.5a1.775,1.775,0,0,1,1.412.717A.5.5,0,0,1,15,8Z" fill="#37474f"/>
</svg>
