<svg xmlns="http://www.w3.org/2000/svg" viewBox="0 0 24 24">
  <title>Einstein</title>
  <path d="M22,8.5A4.719,4.719,0,0,0,20.125,5c.436-.523-.009-1.395-.18-1.73A6.712,6.712,0,0,0,14.5,0,6.783,6.783,0,0,0,12,.375,6.783,6.783,0,0,0,9.5,0,6.712,6.712,0,0,0,4.055,3.273c-.171.336-.615,1.207-.18,1.73A4.719,4.719,0,0,0,2,8.5c0,.739.066,1.513.517,1.818a3.4,3.4,0,0,0,.609,3.513c.272.307.912,1.021,1.528.709a.824.824,0,0,0,.41-.556A3.612,3.612,0,0,0,7.5,15h9a3.612,3.612,0,0,0,2.436-1.015.824.824,0,0,0,.41.556c.614.313,1.256-.4,1.528-.709a3.4,3.4,0,0,0,.609-3.513C21.934,10.013,22,9.239,22,8.5Z" fill="#455a64"/>
  <path d="M24,23.5a.5.5,0,0,1-.5.5H.5a.5.5,0,0,1-.5-.5,6.151,6.151,0,0,1,4.37-5.87l2.57-.9a.5.5,0,0,1,.53.14A6.648,6.648,0,0,0,10,18.62a5.14,5.14,0,0,0,1,.28,4.778,4.778,0,0,0,1,.1,6.182,6.182,0,0,0,4.53-2.13.5.5,0,0,1,.53-.14l2.57.9A6.151,6.151,0,0,1,24,23.5Z" fill="#009688"/>
  <path d="M10.5,11h-1a.5.5,0,0,1,0-1h1a.5.5,0,0,1,0,1Z"/>
  <path d="M14.5,11h-1a.5.5,0,0,1,0-1h1a.5.5,0,0,1,0,1Z"/>
  <path d="M18,8.13c0-.043,0-.086,0-.13A6,6,0,0,0,6,8c0,.043,0,.087,0,.13A2.668,2.668,0,0,0,5,10.5c0,1.391.614,2.448,1.439,2.5.907,3.012,3.1,5,5.561,5s4.653-1.99,5.561-5c.825-.05,1.439-1.107,1.439-2.5A2.668,2.668,0,0,0,18,8.13Z" fill="#ffe082"/>
  <path d="M12,16a2.324,2.324,0,0,1-2-2.5.5.5,0,0,1,.5-.5h3a.5.5,0,0,1,.5.5A2.324,2.324,0,0,1,12,16Z" fill="#f44336"/>
  <path d="M8.5,9.5a.5.5,0,0,1-.347-.86A2.225,2.225,0,0,1,9.5,8a.5.5,0,0,1,0,1,1.361,1.361,0,0,0-.653.36A.5.5,0,0,1,8.5,9.5Z" fill="#455a64"/>
  <path d="M15.5,9.5a.5.5,0,0,1-.345-.137A1.339,1.339,0,0,0,14.5,9a.5.5,0,0,1,0-1,2.225,2.225,0,0,1,1.347.64A.5.5,0,0,1,15.5,9.5Z" fill="#455a64"/>
  <polygon points="10 18.62 10 24 11 24 11 18.9 10 18.62" fill="#00796b"/>
  <rect x="16" y="21" width="4" height="3" rx="0.5" ry="0.5" fill="#455a64"/>
  <path d="M14.5,14a.5.5,0,0,1-.4-.2,1.985,1.985,0,0,0-1.146-.777.7.7,0,0,0-.578.308.5.5,0,1,1-.752-.658A1.69,1.69,0,0,1,13,12.022,2.9,2.9,0,0,1,14.9,13.2a.5.5,0,0,1-.4.8Z" fill="#455a64"/>
  <path d="M9.5,14a.5.5,0,0,1-.4-.8A2.9,2.9,0,0,1,11,12.022a1.7,1.7,0,0,1,1.372.648.5.5,0,1,1-.752.658.7.7,0,0,0-.58-.308A1.965,1.965,0,0,0,9.9,13.8.5.5,0,0,1,9.5,14Z" fill="#455a64"/>
</svg>
