<svg xmlns="http://www.w3.org/2000/svg" viewBox="0 0 24 24">
  <title>Elvis</title>
  <path d="M18.8,8.228a.513.513,0,0,0-.514-.336l-.961.08A4.744,4.744,0,0,1,17,6.5a.5.5,0,0,0-.5-.5C13.56,6,11.056,4,11,3.5a.5.5,0,0,0-1,0,1.314,1.314,0,0,1-.346.981A3,3,0,0,1,7.631,5a.873.873,0,0,0-.7.254A4.617,4.617,0,0,0,6.47,7.933c-.244-.023-.53-.043-.8-.043a.5.5,0,0,0-.473.337A3.973,3.973,0,0,0,5,9.5c0,1.443.676,2.565,1.532,2.5l1.3,2.716a.5.5,0,0,0,.06.1A5.3,5.3,0,0,0,12,17a5.3,5.3,0,0,0,4.111-2.188.5.5,0,0,0,.06-.1L17.468,12C18.346,12.064,19,10.943,19,9.5A3.973,3.973,0,0,0,18.8,8.228Z" fill="#ffe082"/>
  <path d="M12.017,0H12A7.008,7.008,0,0,0,5,7a6.789,6.789,0,0,0,.182,1.5.5.5,0,0,0,.488.392,10.029,10.029,0,0,1,1.255.1A.5.5,0,0,0,7.5,8.463,7.545,7.545,0,0,1,7.63,6a3.817,3.817,0,0,0,2.729-.811,2.053,2.053,0,0,0,.333-.434,9.131,9.131,0,0,0,5.344,2.229A7.339,7.339,0,0,0,16.543,8.7.5.5,0,0,0,17,9h.041l1.33-.11a.5.5,0,0,0,.447-.39A6.789,6.789,0,0,0,19,7V5.921A6.2,6.2,0,0,0,20,2C20,.85,17.314.177,12.017,0Z" fill="#455a64"/>
  <path d="M9.884,14.18l-2.5-3a.5.5,0,0,0-.273-.167.508.508,0,0,0-.426-.1.5.5,0,0,0-.377.6l.7,3.1A.5.5,0,0,0,7.5,15h2a.5.5,0,0,0,.384-.82Z" fill="#455a64"/>
  <path d="M17.315,10.913a.5.5,0,0,0-.426.1.5.5,0,0,0-.273.167l-2.5,3A.5.5,0,0,0,14.5,15h2a.5.5,0,0,0,.488-.389l.7-3.1A.5.5,0,0,0,17.315,10.913Z" fill="#455a64"/>
  <path d="M10.5,10h-1a.5.5,0,0,1,0-1h1a.5.5,0,0,1,0,1Z" fill="#455a64"/>
  <path d="M14.5,10h-1a.5.5,0,0,1,0-1h1a.5.5,0,0,1,0,1Z" fill="#455a64"/>
  <path d="M19.574,17.611l-.47-.1a.5.5,0,0,0-.458.136l-.917.917-1.388.463A.5.5,0,0,0,16,19.5v.732L12,22.9,8,20.232V19.5a.5.5,0,0,0-.342-.474L6.27,18.563l-.917-.917a.5.5,0,0,0-.458-.136l-.53.117A6.172,6.172,0,0,0,0,23.5a.5.5,0,0,0,.5.5h23a.5.5,0,0,0,.5-.5A6.189,6.189,0,0,0,19.574,17.611Z" fill="#cfd8dc"/>
  <path d="M12.412,23.217l-5.5-8a.5.5,0,0,0-.57-.191l-3,1a.5.5,0,0,0-.2.828l2.5,2.5a.5.5,0,0,0,.2.121L7,19.86v.64a.5.5,0,0,0,.223.416l4.5,3a.5.5,0,0,0,.689-.7Z" fill="#f44336"/>
  <path d="M20.658,16.026l-3-1a.5.5,0,0,0-.57.191l-5.5,8a.5.5,0,0,0,.689.7l4.5-3A.5.5,0,0,0,17,20.5v-.64l1.158-.386a.5.5,0,0,0,.2-.121l2.5-2.5a.5.5,0,0,0-.2-.828Z" fill="#f44336"/>
</svg>
