<svg xmlns="http://www.w3.org/2000/svg" viewBox="0 0 24 24">
  <title>Female 2</title>
  <path d="M23.964,23.314l-.532-1.33a3.475,3.475,0,0,0-1.85-1.9l-5.332-3.012A7.092,7.092,0,0,1,15.09,14.3a16.952,16.952,0,0,0,2.7-1.389.5.5,0,0,0,.165-.617A15.2,15.2,0,0,1,17,6.5C17,2.187,15.149,0,11.5,0a.5.5,0,0,0-.354.146l-.361.361C8.922.643,7,2.531,7,6.5a15.2,15.2,0,0,1-.954,5.791.5.5,0,0,0,.165.617A16.952,16.952,0,0,0,8.91,14.3a7.142,7.142,0,0,1-1.156,2.768L2.471,20.054a3.521,3.521,0,0,0-1.9,1.931l-.532,1.33A.5.5,0,0,0,.5,24h23a.5.5,0,0,0,.464-.686Z" fill="#455a64"/>
</svg>
