<svg xmlns="http://www.w3.org/2000/svg" viewBox="0 0 24 24">
  <title>Female User</title>
  <path d="M19.743,18.045l-3.831-.958-.221-.885a12.684,12.684,0,0,0,4.063-1.272.5.5,0,0,0,.242-.4.507.507,0,0,0-.191-.428C19.787,14.09,18,12.614,18,7.5,18,3.187,16.991,1,15,1h-.3A3.2,3.2,0,0,0,12,0C10.121,0,6,1.889,6,7.5c0,5.114-1.787,6.59-1.8,6.6a.5.5,0,0,0,.042.829,12.444,12.444,0,0,0,4.066,1.276l-.221.883-3.83.958A5.612,5.612,0,0,0,0,23.5a.5.5,0,0,0,.5.5h23a.5.5,0,0,0,.5-.5A5.612,5.612,0,0,0,19.743,18.045Z" fill="#455a64"/>
</svg>
