<svg xmlns="http://www.w3.org/2000/svg" viewBox="0 0 24 24">
  <title>Male 1</title>
  <path d="M18.8,8.228a.516.516,0,0,0-.514-.336l-.961.08A4.744,4.744,0,0,1,17,6.5a.5.5,0,0,0-.5-.5C13.56,6,11.056,4,11,3.5a.5.5,0,0,0-1,0,1.314,1.314,0,0,1-.346.981A3,3,0,0,1,7.631,5a.875.875,0,0,0-.7.254A4.617,4.617,0,0,0,6.47,7.933c-.436-.042-1.115-.163-1.272.294A3.973,3.973,0,0,0,5,9.5c0,1.395.618,2.454,1.445,2.5.9,3.012,3.091,5,5.555,5s4.65-1.99,5.555-5c.828-.045,1.445-1.1,1.445-2.5A3.973,3.973,0,0,0,18.8,8.228Z" fill="#ffe082"/>
  <path d="M19.635,16.626l-2.572-.895a.5.5,0,0,0-.533.134A6.167,6.167,0,0,1,12,18a6.167,6.167,0,0,1-4.53-2.134.5.5,0,0,0-.533-.134l-2.572.895A6.5,6.5,0,0,0,0,22.766V23.5a.5.5,0,0,0,.5.5h23a.5.5,0,0,0,.5-.5v-.734A6.5,6.5,0,0,0,19.635,16.626Z" fill="#2196f3"/>
  <path d="M10.5,10h-1a.5.5,0,0,1,0-1h1a.5.5,0,0,1,0,1Z" fill="#455a64"/>
  <path d="M14.5,10h-1a.5.5,0,0,1,0-1h1a.5.5,0,0,1,0,1Z" fill="#455a64"/>
  <path d="M12,0A7.008,7.008,0,0,0,5,7a6.789,6.789,0,0,0,.182,1.5.5.5,0,0,0,.488.392,10.029,10.029,0,0,1,1.255.1A.5.5,0,0,0,7.5,8.463,7.545,7.545,0,0,1,7.63,6a3.773,3.773,0,0,0,2.729-.811,2.053,2.053,0,0,0,.333-.434,9.131,9.131,0,0,0,5.344,2.229A7.339,7.339,0,0,0,16.543,8.7.5.5,0,0,0,17,9h.041l1.33-.11a.5.5,0,0,0,.447-.39A6.789,6.789,0,0,0,19,7,7.008,7.008,0,0,0,12,0Z" fill="#455a64"/>
</svg>
