<svg xmlns="http://www.w3.org/2000/svg" viewBox="0 0 24 24">
  <title>Medic</title>
  <path d="M19,8a6.685,6.685,0,0,0-.163-1.491.5.5,0,0,0-.487-.389H5.65a.5.5,0,0,0-.487.389,6.522,6.522,0,0,0-.01,2.856A4.069,4.069,0,0,0,5,10.5c0,1.394.617,2.453,1.443,2.5a8.056,8.056,0,0,0,.286.8.5.5,0,0,0,.619.281L12,12.527l4.65,1.557a.5.5,0,0,0,.62-.28A8.024,8.024,0,0,0,17.558,13C18.384,12.952,19,11.893,19,10.5a4.069,4.069,0,0,0-.153-1.135A6.62,6.62,0,0,0,19,8Z" fill="#ffe082"/>
  <path d="M11.539,18.971a6.167,6.167,0,0,1-4.071-2.109.5.5,0,0,0-.533-.134l-2.568.9A6.171,6.171,0,0,0,0,23.5a.5.5,0,0,0,.5.5h11a.5.5,0,0,0,.5-.5V19.47A.5.5,0,0,0,11.539,18.971Z" fill="#cfd8dc"/>
  <path d="M19.635,17.628l-2.569-.9a.5.5,0,0,0-.533.134A6.177,6.177,0,0,1,12,19a3.437,3.437,0,0,1-.437-.026.508.508,0,0,0-.394.121.5.5,0,0,0-.17.375V23.5a.5.5,0,0,0,.5.5h12a.5.5,0,0,0,.5-.5A6.171,6.171,0,0,0,19.635,17.628Z" fill="#b0bec5"/>
  <path d="M10.5,11h-1a.5.5,0,0,1,0-1h1a.5.5,0,0,1,0,1Z" fill="#455a64"/>
  <path d="M14.5,11h-1a.5.5,0,0,1,0-1h1a.5.5,0,0,1,0,1Z" fill="#455a64"/>
  <path d="M17.264,13.4a.5.5,0,0,0-.295-.264l-4.81-1.61a.5.5,0,0,0-.317,0l-4.81,1.6a.5.5,0,0,0-.306.661C7.768,16.385,9.789,18,12,18s4.234-1.611,5.273-4.2A.5.5,0,0,0,17.264,13.4Z" fill="#cfd8dc"/>
  <path d="M17.5,22a.5.5,0,0,1-.5-.5v-2a.5.5,0,0,1,1,0v2A.5.5,0,0,1,17.5,22Z" fill="#4caf50"/>
  <path d="M18.5,21h-2a.5.5,0,0,1,0-1h2a.5.5,0,0,1,0,1Z" fill="#4caf50"/>
  <path d="M18.411,2.925A3.489,3.489,0,0,0,14.959,0H9.041A3.489,3.489,0,0,0,5.589,2.925L5.007,6.418a.5.5,0,0,0,.14.436C6.024,7.732,7.718,7.942,10,7.986h4.01c2.272-.044,3.966-.254,4.844-1.133a.5.5,0,0,0,.14-.436Z" fill="#009688"/>
  <circle cx="12" cy="6" r="3" fill="#455a64"/>
  <circle cx="12" cy="6" r="1" fill="#ffc107"/>
</svg>
