<?xml version="1.0" encoding="utf-8"?>
<!-- Generator: Adobe Illustrator 24.1.3, SVG Export Plug-In . SVG Version: 6.00 Build 0)  -->
<svg version="1.1" id="Layer_1" xmlns="http://www.w3.org/2000/svg" xmlns:xlink="http://www.w3.org/1999/xlink" x="0px" y="0px"
	 viewBox="0 0 24 24" style="enable-background:new 0 0 24 24;" xml:space="preserve">
<style type="text/css">
	.st0{fill:#EBEDEF;}
	.st1{fill:#5A6163;}
	.st2{fill:#939CA0;}
</style>
<rect class="st0" width="24" height="24"/>
<path class="st1" d="M12.1,22.8c3.1,0,6-1.4,7.9-3.5c-0.2-0.2-0.5-0.3-0.7-0.4l-3.7-1.2c-0.9-0.4-1.3-1.8-1.4-2.4
	c0.7-0.6,1.1-1.4,1.2-2.3c0-0.2,0-0.3,0.1-0.4c0.1,0,0.2-0.1,0.3-0.3c0.2-0.6,0.4-1.2,0.4-1.8v-0.1c-0.1-0.2-0.2-0.5-0.4-0.6V7.7
	c0-1.3-0.4-1.9-0.8-2.2c-0.1-0.6-0.8-2-3.3-2c-2.2,0.1-4,1.9-4.1,4.2v2.2c-0.2,0.1-0.3,0.4-0.4,0.6v0.1c0.1,0.6,0.2,1.2,0.4,1.8
	c0,0.1,0.1,0.2,0.3,0.2c0,0,0.1,0.1,0.1,0.4c0.1,0.9,0.5,1.7,1.2,2.3c-0.1,0.5-0.5,2-1.4,2.3L4.2,19c-0.1,0-0.2,0-0.3,0.1
	C5.9,21.4,8.8,22.8,12.1,22.8z"/>
<path class="st2" d="M23,9.5c0.1,0.6,0.1,1.1,0.1,1.7c0,6-4.8,10.8-10.8,10.8S1.6,17.2,1.6,11.2c0-4.8,3.2-8.9,7.5-10.3
	C4.3,2.2,0.7,6.6,0.7,11.8c0,6.2,5,11.3,11.3,11.3s11.3-5,11.3-11.3C23.3,11,23.2,10.3,23,9.5z"/>
</svg>
