<svg xmlns="http://www.w3.org/2000/svg" viewBox="0 0 24 24">
  <title>Prisoner</title>
  <path d="M24,23.5a.5.5,0,0,1-.5.5H.5a.5.5,0,0,1-.5-.5,6.036,6.036,0,0,1,.33-2,5.879,5.879,0,0,1,1.18-2,6.737,6.737,0,0,1,2.86-1.87l2.56-.9a.5.5,0,0,1,.54.13A6.158,6.158,0,0,0,12,19a6.158,6.158,0,0,0,4.53-2.14.517.517,0,0,1,.54-.13l2.56.9a6.737,6.737,0,0,1,2.86,1.87,5.879,5.879,0,0,1,1.18,2A6.036,6.036,0,0,1,24,23.5Z" fill="#cfd8dc"/>
  <path d="M23.67,21.5H.33a5.879,5.879,0,0,1,1.18-2H22.49A5.879,5.879,0,0,1,23.67,21.5Z" fill="#607d8b"/>
  <path d="M17.342,16.966l-.9-1.7A.5.5,0,0,0,16,15H8a.5.5,0,0,0-.441.266l-.9,1.7a.5.5,0,0,0,.073.572A7.161,7.161,0,0,0,12,20a7.161,7.161,0,0,0,5.269-2.462A.5.5,0,0,0,17.342,16.966Z" fill="#455a64"/>
  <path d="M17.979,8.15C17.99,7.9,18,7.607,18,7.5a.5.5,0,0,0-.5-.5H6.5a.5.5,0,0,0-.5.5c0,.1.009.374.02.621A2.652,2.652,0,0,0,5,10.5c0,1.391.614,2.448,1.439,2.5.907,3.012,3.1,5,5.561,5s4.653-1.99,5.561-5c.825-.05,1.439-1.107,1.439-2.5A2.594,2.594,0,0,0,17.979,8.15Z" fill="#ffe082"/>
  <path d="M10.5,11h-1a.5.5,0,0,1,0-1h1a.5.5,0,0,1,0,1Z" fill="#455a64"/>
  <path d="M14.5,11h-1a.5.5,0,0,1,0-1h1a.5.5,0,0,1,0,1Z" fill="#455a64"/>
  <path d="M17.924,2.235C17.867,2.144,16.476,0,12,0S6.133,2.144,6.076,2.235A.5.5,0,0,0,6,2.5v5a.5.5,0,0,0,.265.441A13,13,0,0,0,12,9a13,13,0,0,0,5.735-1.059A.5.5,0,0,0,18,7.5v-5A.5.5,0,0,0,17.924,2.235Z" fill="#455a64"/>
  <path d="M12,4a14.421,14.421,0,0,1-4.156-.525.5.5,0,0,1,.312-.95A13.76,13.76,0,0,0,12,3a13.76,13.76,0,0,0,3.845-.475.5.5,0,0,1,.312.95A14.421,14.421,0,0,1,12,4Z" fill="#607d8b"/>
  <path d="M12,6.5a14.421,14.421,0,0,1-4.156-.525.5.5,0,0,1,.312-.95A13.76,13.76,0,0,0,12,5.5a13.76,13.76,0,0,0,3.845-.475.5.5,0,0,1,.312.95A14.421,14.421,0,0,1,12,6.5Z" fill="#607d8b"/>
</svg>
