<svg xmlns="http://www.w3.org/2000/svg" viewBox="0 0 24 24">
  <title>Punk</title>
  <path d="M19.635,16.626l-2.572-.895a.5.5,0,0,0-.533.135A6.169,6.169,0,0,1,12,18a6.169,6.169,0,0,1-4.53-2.134.5.5,0,0,0-.533-.135l-2.572.895A6.505,6.505,0,0,0,0,22.766V23.5a.5.5,0,0,0,.5.5h23a.5.5,0,0,0,.5-.5v-.734A6.505,6.505,0,0,0,19.635,16.626Z" fill="#607d8b"/>
  <path d="M18,7.154c0-.051,0-.1,0-.154a5.972,5.972,0,0,0-4.616-5.833.513.513,0,0,0-.115-.014H10.73a.513.513,0,0,0-.115.014A5.972,5.972,0,0,0,6,7c0,.044,0,.087,0,.13A2.669,2.669,0,0,0,5,9.5c0,1.391.614,2.448,1.439,2.5.908,3.012,3.1,5,5.561,5s4.653-1.99,5.561-5C18.386,11.948,19,10.891,19,9.5A2.621,2.621,0,0,0,18,7.154Z" fill="#ffe082"/>
  <path d="M13.887.183A.5.5,0,0,0,13.5,0h-3a.5.5,0,0,0-.49.6l1,5a.5.5,0,0,0,.49.4h1a.5.5,0,0,0,.49-.4l1-5A.5.5,0,0,0,13.887.183Z" fill="#455a64"/>
  <path d="M10.5,10h-1a.5.5,0,0,1,0-1h1a.5.5,0,0,1,0,1Z" fill="#455a64"/>
  <path d="M14.5,10h-1a.5.5,0,0,1,0-1h1a.5.5,0,0,1,0,1Z" fill="#455a64"/>
</svg>
