<svg xmlns="http://www.w3.org/2000/svg" viewBox="0 0 24 24">
  <title>Scream</title>
  <path d="M19.635,16.626l-2.572-.895a.5.5,0,0,0-.533.135C15.318,17.188,13.657,19,12,19s-3.318-1.812-4.53-3.134a.5.5,0,0,0-.533-.135l-2.572.895A6.505,6.505,0,0,0,0,22.766V23.5a.5.5,0,0,0,.5.5h23a.5.5,0,0,0,.5-.5v-.734A6.505,6.505,0,0,0,19.635,16.626Z" fill="#455a64"/>
  <path d="M12,0C7.4,0,5,5.859,5,9c0,3.092,2.936,8.511,3.061,8.739a.5.5,0,0,0,.114.141l3.5,3a.5.5,0,0,0,.65,0l3.5-3a.5.5,0,0,0,.114-.141C16.064,17.511,19,12.092,19,9,19,5.859,16.6,0,12,0Z" fill="#455a64"/>
  <path d="M16.987,5.546C16.772,1.924,14.014,0,12,0S7.228,1.924,7.013,5.546C5.546,5.832,5,7.407,5,8.5a2.5,2.5,0,0,0,1.663,2.386c.49.26.771.422.853.739C8.323,14.753,9.979,20,12,20s3.677-5.247,4.484-8.375c.082-.317.363-.479.853-.739A2.5,2.5,0,0,0,19,8.5C19,7.407,18.454,5.832,16.987,5.546Z" fill="#fafafa"/>
  <path d="M8.191,9a1.225,1.225,0,0,1-.928-.272A.971.971,0,0,1,7,8c0-.443.433-.509.6-.533a2.5,2.5,0,0,0,2.412-2.054A.513.513,0,0,1,10.543,5,.5.5,0,0,1,11,5.5C11,6.628,9.6,9,8.5,9H8.191Z" fill="#455a64"/>
  <path d="M15.809,9H15.5C14.4,9,13,6.628,13,5.5a.5.5,0,0,1,.457-.5.51.51,0,0,1,.536.411A2.5,2.5,0,0,0,16.4,7.467c.163.024.6.09.6.533a.971.971,0,0,1-.263.729A1.225,1.225,0,0,1,15.809,9Z" fill="#455a64"/>
  <path d="M12.5,10a.5.5,0,0,1-.448-.276L12,9.618l-.053.105a.5.5,0,1,1-.895-.447l.5-1a.521.521,0,0,1,.895,0l.5,1a.5.5,0,0,1-.224.671A.494.494,0,0,1,12.5,10Z" fill="#455a64"/>
  <path d="M12.958,11.4a1.356,1.356,0,0,0-1.917,0,2.33,2.33,0,0,0-.141,1.915A4.364,4.364,0,0,1,11,14c0,3.362.352,4,1,4s1-.638,1-4a4.364,4.364,0,0,1,.1-.687A2.33,2.33,0,0,0,12.958,11.4Z" fill="#455a64"/>
</svg>
