<svg xmlns="http://www.w3.org/2000/svg" viewBox="0 0 24 24">
  <title>Solider</title>
  <path d="M23.99,23.4a.526.526,0,0,1-.1.42.532.532,0,0,1-.39.18H.5a.532.532,0,0,1-.39-.18.526.526,0,0,1-.1-.42l.68-3.42A3.483,3.483,0,0,1,2.8,17.43l3.95-1.62.16-.07a.509.509,0,0,1,.56.12A6.3,6.3,0,0,0,11,17.9a4.778,4.778,0,0,0,1,.1,6.158,6.158,0,0,0,4.53-2.14.509.509,0,0,1,.56-.12l.16.07,3.95,1.62a3.483,3.483,0,0,1,2.11,2.55Z" fill="#9e9d24"/>
  <path d="M3.5,20a.5.5,0,0,1-.291-.907l3.5-2.5a.5.5,0,1,1,.582.813l-3.5,2.5A.5.5,0,0,1,3.5,20Z" fill="#006064"/>
  <path d="M20.5,20a.5.5,0,0,1-.291-.093l-3.5-2.5a.5.5,0,1,1,.582-.813l3.5,2.5A.5.5,0,0,1,20.5,20Z" fill="#006064"/>
  <path d="M17.342,15.966l-.9-1.7A.5.5,0,0,0,16,14H8a.5.5,0,0,0-.441.266l-.9,1.7a.5.5,0,0,0,.073.572A7.161,7.161,0,0,0,12,19a7.161,7.161,0,0,0,5.269-2.462A.5.5,0,0,0,17.342,15.966Z" fill="#827717"/>
  <path d="M12,15v9H11V15a.5.5,0,0,1,1,0Z" fill="#006064"/>
  <path d="M18.814,8.256l-.546-2.339a.5.5,0,0,0-.469-.386L6.237,5.094a.476.476,0,0,0-.509.4L5.193,8.233A4.087,4.087,0,0,0,5,9.5c0,1.393.615,2.451,1.441,2.5.908,3.011,3.1,5,5.559,5s4.65-1.99,5.559-5C18.385,11.951,19,10.893,19,9.5A4.1,4.1,0,0,0,18.814,8.256Z" fill="#ffe082"/>
  <rect x="16" y="21" width="4" height="3" rx="0.5" ry="0.5" fill="#006064"/>
  <path d="M12,0C8.133,0,4,2.233,4,8.5a.5.5,0,0,0,.5.5h1a.5.5,0,0,0,.416-.223L6.708,7.59A23.047,23.047,0,0,0,12,8a14.781,14.781,0,0,0,4.479-.392L18.2,8.9a.5.5,0,0,0,.3.1h1a.5.5,0,0,0,.5-.5C20,2.233,15.867,0,12,0Z" fill="#006064"/>
  <path d="M10.5,10h-1a.5.5,0,0,1,0-1h1a.5.5,0,0,1,0,1Z" fill="#455a64"/>
  <path d="M14.5,10h-1a.5.5,0,0,1,0-1h1a.5.5,0,0,1,0,1Z" fill="#455a64"/>
</svg>
