<svg xmlns="http://www.w3.org/2000/svg" viewBox="0 0 24 24">
  <title>Student</title>
  <path d="M18,7.129c0-.043,0-.086,0-.129V5.5a.5.5,0,0,0-.763-.425C17.222,5.084,15.677,6,12,6s-5.222-.916-5.234-.923A.5.5,0,0,0,6,5.5V7c0,.043,0,.086,0,.129A2.669,2.669,0,0,0,5,9.5c0,1.39.613,2.446,1.437,2.5.914,3.012,3.1,5,5.563,5s4.649-1.99,5.563-5C18.387,11.946,19,10.89,19,9.5A2.669,2.669,0,0,0,18,7.129Z" fill="#ffe082"/>
  <path d="M19.635,16.626l-2.572-.895a.5.5,0,0,0-.533.134A6.167,6.167,0,0,1,12,18a6.167,6.167,0,0,1-4.53-2.134.5.5,0,0,0-.533-.134l-2.572.895A6.5,6.5,0,0,0,0,22.766V23.5a.5.5,0,0,0,.5.5h23a.5.5,0,0,0,.5-.5v-.734A6.5,6.5,0,0,0,19.635,16.626Z" fill="#455a64"/>
  <path d="M10.5,10h-1a.5.5,0,0,1,0-1h1a.5.5,0,0,1,0,1Z" fill="#455a64"/>
  <path d="M14.5,10h-1a.5.5,0,0,1,0-1h1a.5.5,0,0,1,0,1Z" fill="#455a64"/>
  <path d="M17.808,1.856a.5.5,0,0,0-.429-.091L12.466,2.993l-5.91-.66A.5.5,0,0,0,6,2.83V5.5a.5.5,0,0,0,.234.423C6.3,5.967,7.992,7,12,7s5.7-1.033,5.766-1.077A.5.5,0,0,0,18,5.5V2.25A.5.5,0,0,0,17.808,1.856Z" fill="#607d8b"/>
  <path d="M17.5,2.75a.5.5,0,0,1-.5-.5V2a.5.5,0,0,1,1,0v.25A.5.5,0,0,1,17.5,2.75Z"/>
  <path d="M6.5,3.33a.5.5,0,0,1-.5-.5V2.5a.5.5,0,0,1,1,0v.33A.5.5,0,0,1,6.5,3.33Z"/>
  <path d="M21.854,6.146,21,5.293V1.5a.5.5,0,0,0-1,0V5.293l-.854.854a.5.5,0,0,0-.094.577l1,2a.5.5,0,0,0,.895,0l1-2A.5.5,0,0,0,21.854,6.146Z" fill="#ffc107"/>
  <path d="M20.555,1l-9-1a.485.485,0,0,0-.176.012l-8,2A.5.5,0,0,0,3.445,3l9,1L12.5,4a.481.481,0,0,0,.121-.015l8-2A.5.5,0,0,0,20.555,1Z" fill="#455a64"/>
</svg>
