<svg xmlns="http://www.w3.org/2000/svg" viewBox="0 0 24 24">
  <title>Worker</title>
  <path d="M18.621,7.252A.857.857,0,0,0,18,7H6a.857.857,0,0,0-.621.252C4.993,7.639,5,8.309,5,9.236V9.5c0,1.391.614,2.448,1.439,2.5.907,3.012,3.1,5,5.561,5s4.653-1.99,5.561-5C18.386,11.948,19,10.891,19,9.5V9.236C19,8.309,19.007,7.639,18.621,7.252Z" fill="#ffe082"/>
  <path d="M18.724,6.553,18,6.188C17.893,2.979,16.189,1,13.5,1h-3C7.811,1,6.107,2.979,6,6.188l-.729.364a.5.5,0,0,0-.041.871l2.783,1.74A5.494,5.494,0,0,0,10.934,10h2.133a5.493,5.493,0,0,0,2.914-.836l2.784-1.74a.5.5,0,0,0-.041-.871Z" fill="#ffc107"/>
  <g>
    <path d="M4.31,16.808l-1.508.62A3.5,3.5,0,0,0,.689,19.982L.01,23.4A.5.5,0,0,0,.5,24h4a.5.5,0,0,0,.5-.5V17.27a.5.5,0,0,0-.69-.462Z" fill="#607d8b"/>
    <path d="M17.692,15.989l-.6-.25a.5.5,0,0,0-.561.124A6.177,6.177,0,0,1,12,18a6.177,6.177,0,0,1-4.532-2.138.5.5,0,0,0-.561-.124l-.6.25A.5.5,0,0,0,6,16.45V23.5a.5.5,0,0,0,.5.5h11a.5.5,0,0,0,.5-.5V16.45A.5.5,0,0,0,17.692,15.989Z" fill="#607d8b"/>
    <path d="M23.311,19.981a3.5,3.5,0,0,0-2.11-2.553l-1.51-.62a.5.5,0,0,0-.69.462V23.5a.5.5,0,0,0,.5.5h4a.5.5,0,0,0,.49-.6Z" fill="#607d8b"/>
  </g>
  <path d="M13.812.609a3,3,0,0,0-3.625,0A.5.5,0,0,0,10,1V3a2,2,0,0,0,4,0V1A.5.5,0,0,0,13.812.609Z" fill="#ffa000"/>
  <circle cx="12" cy="7" r="3" fill="#455a64"/>
  <path d="M6.778,16.035a.5.5,0,0,0-.468-.047l-2,.82A.5.5,0,0,0,4,17.27V23.5a.5.5,0,0,0,.5.5h2a.5.5,0,0,0,.5-.5V16.45A.5.5,0,0,0,6.778,16.035Z" fill="#455a64"/>
  <path d="M19.689,16.808l-2-.82A.5.5,0,0,0,17,16.45V23.5a.5.5,0,0,0,.5.5h2a.5.5,0,0,0,.5-.5V17.27A.5.5,0,0,0,19.689,16.808Z" fill="#455a64"/>
</svg>
